<?xml version="1.0" encoding="utf-8"?>
<!-- Generator: Adobe Illustrator 23.0.4, SVG Export Plug-In . SVG Version: 6.00 Build 0)  -->
<svg version="1.1" id="Layer_1" xmlns="http://www.w3.org/2000/svg" xmlns:xlink="http://www.w3.org/1999/xlink" x="0px" y="0px"
	 viewBox="0 0 53.4 52.6" style="enable-background:new 0 0 53.4 52.6;" xml:space="preserve">
<style type="text/css">
	.st0{fill-rule:evenodd;clip-rule:evenodd;}
	.st1{fill:#FDDA30;}
	.st2{fill:#FAA82A;}
	.st3{fill-rule:evenodd;clip-rule:evenodd;fill:#FFFFFF;}
</style>
<g>
	<path class="st0" d="M1595.8,330.5c0-0.4,0-0.9-0.1-1.3c-0.1-2.8-0.1-5.8-0.1-9.1c0.1-10.2,0.2-21.9-4.1-34.4
		c-4.7-13.6-14.6-24.6-29.5-32.2c-1.9-1-3.9-1.9-5.7-2.8c-1.6-0.7-3.7-1.7-5.1-2.5c0.2-1.5,1-4,2.5-6.2c0.2,0.1,0.3,0.1,0.5,0.2
		c1.4,0.6,3,1.4,4.9,2.1c8.5,3.1,16.7,3.4,22.7,0.7c2.9-1.3,5.7-2.6,8.6-3.9c-1-3.6-1.9-7.2-2.9-10.8c-5.4-20.1-30.4-35-48.3-33.4
		c-17.5,1.2-24.8,16-28,25.5c-3.7-8.3-10.4-16.5-19.9-23.5c-14.9-11-33.6-17.6-51.5-18c-0.1,0-0.3,0-0.4,0c-7.5,0-13.4,2.3-17.5,6.5
		c-9.7-3.1-20.5,0.1-26.6,2c-0.6,0.2-1.1,0.4-1.6,0.5c-3.2,0.7-6.7,0.9-10.4,0.6c-0.5-0.1-1.1-0.2-1.7-0.4c-5.3-1.1-14.2-3-21.3,3
		c-4.1,3.3-5.6,7.3-5.7,11.6c-0.7-0.4-1.4-0.8-2.1-1.1s-1.4-0.6-2-0.8c-0.3-0.5-0.6-1.1-0.9-1.6c-3.3-5.4-7.9-11.7-17.6-17.9
		c-3.2-2-7.8-3.6-12.8-3.1c-1,0.2-2,0.3-2.9,0.5c-0.6,0.2-1.2,0.3-1.8,0.6c-3.4,1.2-11.2,5.5-11.7,17.7v0.8c0,2-0.2,4.1-0.5,6.5
		c-4.6-0.2-9.2-0.4-13.8-0.6c-1.4-3.7-3.3-7.6-6-11c-2.1-2.7-4.4-4.9-6.4-6.9c-1.7-1.7-3.4-3.3-4.4-4.7c-0.7-0.5-1.5-1-2.2-1.4
		c0,0-7.8-10.6-20.8,5.3c-1.3,2.2-2.5,4.4-3.8,6.6c-0.4,0.8-0.8,1.7-1.1,2.3c-0.8,1.7-1.5,3.2-1.9,4.4c-1.5,4-2.9,7.6-4.3,11.1
		c-3.1-5.8-7.9-13.3-14.8-19.2c-6.1-5.3-13.8-7.8-21.2-7.2h-0.1c-1.4,0.2-2.8,0.5-4.2,0.7c-0.3,0.1-0.6,0.2-0.9,0.3
		c-7.1,2.2-12.7,7.6-15.4,14.7c-1.5,3.8-1.6,7.2-1.6,9.6c-0.4-1.2-0.8-2.5-1.3-3.8c-0.4-1-0.8-2-1.2-3.1c-0.8-1.9-1.6-3.7-2.4-5.6
		c-1.9-0.9-3.8-1.8-5.6-2.7c-0.8-0.4-1.8-0.8-2.9-1.1c-0.1,0-0.2-0.1-0.3-0.1c-5.8-4.1-12.4-4.8-19.9-2c-0.4,0.2-0.8,0.3-1.2,0.4
		c-3,1.1-5.3,1.9-7.4,2.4c-0.6,0.1-1.3,0.3-1.9,0.4c-3.8,0.9-7.7,1.8-11.6,2.8c-5.9,1.5-11,3.1-15.6,4.8
		c-11.8,4.3-22.7,7.9-36.4,7.7c-6.8-0.1-14.2-1-23.9-2.9c-3.5-0.7-7.1-1.5-10.7-2.3c-11.7-2.6-23.4-5.4-35.1-8.3
		c2.5,5.1,4.9,10.1,7.4,15.1c-0.1,0-0.2,0-0.3,0c-12.6-2.1-21.3,0-27.3,3.5c-1.8-4.4-5-8.2-8.2-10.9c-1.8-1.5-3.5-2.7-5-3.7
		c-1-0.7-2.1-1.4-2.5-1.8c-0.3-0.3-0.7-0.6-1-0.8c-11.9-9.2-23.6-2.1-27.5,0.2c-0.6,0.4-1.5,0.9-2,1.2c-11.8,0.6-23.2,2.9-34.2,5
		c-18.7,3.4-36.3,6-54-1.4c-0.9-0.4-1.7-0.8-2.6-1.2c-13.1-6.2-28-13.7-42.3-11c-5.6,1.1-11.2,2.1-16.9,3
		c3.6,5.9,7.2,11.7,10.8,17.5c10.2,16.4,21.5,32.7,35.3,41.9c8.2,5.7,16.5,8.6,24.5,10c-1.5,7.9-3.5,17.6-5.7,26.9
		c-5.2,22.3-4.5,45.2-2.5,54.1c1,5.4,2.3,10.8,4,15.7c0,0.1,0,0.1,0.1,0.2c0.6,2.4,1.8,7,5.5,11s8.2,6.4,12.8,7c3.1,0.4,6.2,0,9-1.4
		c1.1-0.5,2.1-1.2,3-2c1.1-0.2,2.2-0.5,3.3-0.8c5.8-2,10.2-6.8,11.9-12.8c0.1-0.4,0.2-0.8,0.3-1.2c3.2,4,7.2,7.2,11.7,9.1
		c5.8,2.5,11.7,2.4,16.6,0c8.1-3.9,9.9-11.9,10.8-15.4c1-4.3,2.3-9.2,4-14.7c0.3,3.6,0.8,7.3,1.7,11c4,17.7,15.1,30.2,29.8,33.1
		c13.1,1,26.2,1.8,39.4,2.5l0,0c1.9,0.1,3.8,0.2,5.7,0.1c8.7-0.2,17.7-1.9,22-4.8l0,0c9.4-6.4,15.3-15.4,17-25.7
		c0.1,0.8,0.2,1.7,0.3,2.6c0.4,2.8,1.1,5.6,2.2,8.9c0.3,1.1,0.7,2.2,1.1,3.3c0.2,0.6,0.4,1.2,0.6,1.8c1.2,3.1,2.3,6.2,3.4,9.4
		c5.1-0.2,10.2-0.4,15.3-0.7c0.2,0.2,0.4,0.5,0.6,0.7c2.6-0.4,5.1-0.7,7.7-1.1c0.2,0,0.3,0,0.5-0.1c1.4-0.1,2.8-0.1,4.3-0.2
		c0-0.1,0-0.3,0-0.4c2.3-0.4,4.7-0.7,7-1.1c7.5,5.4,15.4,6.7,21.5,6.6c5.4-0.1,11.2-0.5,16.3-1.2c4.8-1,9.5-1.9,14.3-2.9
		c0.5-0.1,0.9-0.3,1.3-0.4c0.8-0.2,1.6-0.5,2.4-0.7c2.2-0.6,4.3-1.3,6.2-1.7c8.3-1.9,16.5-3.6,26-5.1c10.8-1.7,21.2-2.8,30.8-3.1
		c4.2-0.2,8.5-0.2,12.6-0.1c4.7-0.3,9.4-0.6,14.1-0.9c0.9-3.8,1.8-7.6,2.8-11.5c0,0,10.2,2.9,21.2,7.5c0.3,0.3,0.6,0.5,0.9,0.8
		c0.5,0.5,1.1,1.1,1.6,1.6c5.6,5.5,11.3,11.1,16.9,16.7l1.7-5.2c3.3-4.7,6.6-9.4,9.9-14c6,1.5,11.9,3,17.9,4.6
		c2.8,0.8,5.5,1.5,8.3,2.3c0.5-4.3,0.9-8.6,1.4-12.8c1.6,0.9,3.2,2,4.9,3.4c0.3,0.2,0.6,0.4,0.8,0.6c2.9,2.1,6.9,5.1,11.9,6.6
		l0.4,0.1c6.6,1.8,16.3,0.5,22.2-5.5c3.5,1.9,7.1,2.9,10,3.6c0.1,0,0.3,0.1,0.4,0.1c9,1.8,17.7,2.5,26.2,2.6
		c14.2,0.2,27.9-1.5,41.6-3.1c10.8-1.1,19.7-1.1,28.1,0c1.3,0.2,2.9,0.6,4.6,1.1c7.7,1.9,18.3,4.7,26.7-0.7c2-1.3,4.4-3.5,6.1-6.8
		c10.1,9,25,17.2,38.3,21c2.1,0.6,4.1,1.1,6.1,1.5c16.4,3.2,28.9-1.2,33.5-13C1596,354.9,1596.3,340.9,1595.8,330.5"/>
</g>
<path class="st1" d="M1472.5,300.3c0.3,4.7,1.1,9.9-0.1,13.8c-1.2,4-5.6,5.8-10.2,3.1c1.1,3.8-1.9,6-5,2.7c-0.9-0.9-1.3-3.3-1.6-4.3
	c-1.5-4.4-2.6-8.8-3.3-13.2c-1.1-3.2-2.6-24,2.3-45.2c4.8-20.9,8.7-43.3,8.6-43.3c-11.7,0.5-23.3-0.8-33.6-8
	c-10.4-6.9-19.8-20.6-28.2-34c9.6-1.9,21.6,4.9,33.2,10.4c31.5,13.8,60.4-0.4,89.1-1.3c5.2-0.3,9.4-5.6,13.7-5.4
	c1.1,0,2.3,0.4,3.5,1.4c2.2,2.1,5.1,3.7,7.6,5.8s4.8,5.5,4.1,7.6c-0.4,1.1-1.4,1.6-2.5,2c-4.4,1.7-9.6,2.8-15.2,3.1
	c-5.7,0.2-11.5,0.4-17.2,1c-2.6,0.3-5.3,0.7-7.9,1.3c-10.7,2.2-21.3,6.7-32.6,10.1C1492.3,231.7,1470.3,268.6,1472.5,300.3z
	 M1680.1,206.8c6.5-1.8,13.2-3.9,19.7-6.5c10.5-4.2,20.8-7.8,31.1-8.5c2.6-0.2,5.2-0.3,7.8-0.2c2.5,0.1,4.7-0.5,6.6-1.1
	c0.3-0.1,0.6-0.2,0.9-0.3c1.3-0.4,2.2-2,1.8-3.6c-0.5-2.4-1.3-4.9-2.2-7.2c-0.3-0.9-0.7-1.8-1.1-2.6c-0.1-0.3-0.3-0.6-0.4-0.9
	c-0.3-0.2-0.7-0.3-1-0.5c-0.4-0.2-1-0.4-1.6-0.6c-1-0.4-2.3-0.8-2.8-1.3c-1.6-1.3-2.9-1.8-4-1.8s-2,0.3-2.9,0.6
	c-0.4,0.2-0.8,0.3-1.3,0.5c-2.9,1.1-5.9,2-9.1,2.7c-4.2,0.9-8.5,1.8-12.6,2.8c-4.5,1.1-9.1,2.4-13.5,4c-11.5,4.1-24.1,8.2-40.2,7.7
	c-8.2-0.3-16.5-1.6-25.4-3.5c-3.9-0.8-7.9-1.8-11.9-2.8c-1-0.2-2-0.5-3-0.7c0.5,0.9,0.9,1.9,1.3,2.8c4.7,9.9,13.8,22.4,25.4,24.7
	c2,0.4,4,0.5,6,0.6s4,0,6,0.1c0.4,0,1,0.4,1.3,0.6c0.6,6,0.7,12.4,0.2,19.3c-0.3,4.6-0.8,9.3-1.3,13.7c-1,8.8-2.1,17.4-1.9,25.3
	c0.3,15.1,1.5,30.5,3.8,45.6c0.3,2.2,0.9,4.4,1.6,6.5c0.3,1,0.6,1.9,1,2.9c0.2,0.5,0.3,1,0.5,1.5c1.4,0,2.7-0.1,4.1-0.1
	c0.1-1.4,0.2-2.8,0.3-4.2c1.4,0.4,2.8,0.7,3.9,0c0.3-0.2,0.5-0.3,0.7-0.5c0,0.3,0.1,0.6,0.1,1c0.1,0.9,0.8,1.6,1.3,2.1
	c0.1,0.1,0.2,0.2,0.3,0.3c0.3,0.4,0.6,0.8,1,1.1c1.4-0.2,2.9-0.4,4.3-0.6c-0.2-0.6-0.4-1.1-0.5-1.6c-1.1-3.6-1.9-7.2-2.5-10.9
	c-1.3-8.1-1.4-16.7-1.3-25c0.1-15.6,2.1-31.2,3.5-46.6c0.1-1.5,0.3-2.9,0.4-4.4c0.7-8.8-0.9-15.4-4.6-21c-1.1-1.6-2-3.5-3.2-5.7
	c-0.1-0.2-0.2-0.3-0.3-0.5c1.9-0.3,3.5-0.7,5.2-1.1C1674.6,208.2,1677.4,207.5,1680.1,206.8z M1815.6,304.6c-1-0.3-2.1-0.6-3.1-0.8
	c-7.4-1.8-14.8-2.6-22-2.6c-29.2-0.3-58.6,14.6-87.8,16.3c-1-8.1-0.1-17,2.1-26.6c10.3,0.2,21.2-3,32.5-7.6
	c-0.6-2.7-1.2-5.4-1.7-8.2c-0.1,0-0.2,0-0.3,0.1c1.8-1.8,3.7-3.6,5.5-5.5c-2,0.8-4,1.5-6,2.1c-2.9,1-5.7,1.8-8.4,2.5
	c-6.9,1.7-13.1,2.5-19.2,2.2c-0.7,0-1-0.1-1.1-0.2c0-0.1,0-0.4,0.1-1.1c0.7-5.2,1.4-10.6,1.8-16c0.3-3.1,0.4-6.3,0.4-9.4
	c0-2.1,0-4.3-0.1-6.5c0-0.1,0-0.2,0-0.3c17.8,3.8,33.9-4.1,47.2-13.6c1.1-0.8,2.2-1.6,3.2-2.3c-1.6-0.6-3.3-1.3-5-2
	c3.1-2.2,6-4.3,8.9-6.2c-0.8-1.3-1.6-2.6-2.6-3.9c-0.4,0-0.9-0.1-1.4-0.1c-1.1-0.1-2.2-0.3-3.3-0.4c-2-0.3-4.1-0.7-6.2-0.7
	c-2.7-0.1-5.4,0.3-7.7,2.2c-3.7,3-9.2,5.6-16,7.2c-6.2,1.4-12.8,2-19.3,2.1c-3,0.1-6.1,0.1-9.2,0c-1.3,0-1.5,1-1.6,1.3
	c-0.2,0.4-0.4,0.7-0.6,1.1c0.6,0.6,1.1,1.3,1.7,1.9c-1-0.4-2.1-0.9-3.2-1.3c0.3,1,0.6,1.9,0.8,2.9c0.3,1.2,0.6,2.3,0.8,3.5
	c0.5,2.4,0.8,4.6,0.9,6.9c0.2,3.2,0.1,6.4-0.2,9.6c-0.4,5.4-1.3,10.9-2.2,16.5c-0.6,3.9-1.2,8-1.8,11.9c-0.7,5.2-1.3,10.6-1.9,15.5
	c-0.5,4.2-1.2,8.1-1.6,12.2c-0.2,1.8-0.3,3.7-0.3,5.5c0,0.3,0,0.6,0,0.9c0.3,0.3,0.5,0.5,0.8,0.8c0.8,0.7,1.6,1.3,2.4,1.7
	c0.9,0.5,1.5,0.8,1.8,1.2c-0.6-0.3-1.2-0.5-1.8-0.7c-1-0.4-1.9-0.6-2.8-0.9c-0.4-0.1-0.7-0.2-1.1-0.3c-0.7-0.3-1.5-0.5-2.2-0.8
	c0,0.7,0.1,1.4,0.2,2.1c0,0.3,0,0.6,0,0.9c0,1,0,2.2,0.9,3.5c5.7,8.1,12.8,10.8,19.5,10.8c2.8,0,5.5-0.1,8.1-0.2
	c3.7-0.2,7.2-0.6,10.5-1.1s6.5-1.3,9.5-2.1c3.1-0.8,6.2-1.8,9.5-2.5c8-1.7,16.7-3.4,27-4.9c10.7-1.5,21.7-2.5,32.5-2.8
	c4.5-0.1,9-0.1,13.5,0.1c0.4,0,0.8,0,1.2-0.1c0.5-2.1,1.2-4,2-5.8c-1.8-1.5-3.5-3.2-5.1-4.8C1814.8,306.4,1815.2,305.5,1815.6,304.6
	z M1618,262.3c-0.5-1.2-0.9-2.4-1.4-3.5c-4.6-11-10.7-15.1-20.2-13.8c-8.6,1.6-20.2,5.1-23.1-6.2c-3-11.7,4.3-33.8,15.8-39.2
	c5-2.2,11-1.3,13.7,2c-1.2-1.8,5.4-7.8,1.7-10.8c-3.4-3-8.9-4.3-14-5.2c-2.2-0.4-4.5-0.7-6.7-0.8c-5.7-0.2-11.1,1.1-14.5,5.8
	c-3.7,5.1-6.7,12.9-9.2,19.4c-2.5,6.7-4.3,12.2-4.8,17.8c-1.3,12.9,3.3,32.7,12.1,37.6c5.2,4.1,11.8,2.7,18.1,1.4
	c4.1-0.9,8.1-1.8,11.5-1.2c9,1.2,12.3,14.9,10.6,28.5c-0.4,3-1.3,6.5-3.6,8.2c-3.2,2.2-6.5-0.2-9-1.8c-4.1-2.9-11.4-4.6-17.3-2.4
	c-7.2,2.3-7.3,9.6-6.2,15.2c0.9,4.5,4.4,8.6,9.8,9.8c1.5,0.3,3,0.4,4.5,1c1.4,0.6,2.8,1.9,2.8,3.4c0.3,5.3,24.7,3,26.9,1.3
	c7.2-4.8,10.9-11.2,10.9-19.1c0-7.5-1.8-17.7-3-26.9C1622.6,275.9,1620.3,268.2,1618,262.3z M1558.2,325.1c0.2,0.9,0.5,1.7,0.8,2.6
	c-9.7-2-15.9-11.5-18.2-21.9c-2.6-10.4-1.3-21.9-1.4-28.5c0-2.6,0-5.4-1.3-7.1c-2.7-4.7-16.8,4.9-22.2,6.7c-4,11.6-7.2,22.1-9.3,31
	c-0.6,2.5-1.2,5.1-3.6,6.2c-3.7,1.8-10.1-2.4-12.4-8.5c-2.3-5.8-1.6-10.7-0.8-14.5c2.5-11.3,5.7-22.9,9.1-36.2
	c3.1-13.3,6.4-28.4,4.7-46.7c20.8,2.6,35.7,11.7,43.4,27.7c3.9,8.3,5.6,19,6,31.4c0.4,12.2,0.2,26,1.4,34.9c0.5,5.5,1.2,10.9,2.2,16
	C1557,320.5,1557.5,322.8,1558.2,325.1z M1531.5,252.7c0.5-0.3,1.1-0.6,1.7-1c-1.1-1.6-2-3.4-2.9-5.2c-1.3-2.7-2.7-5.3-4.6-7.5
	c0,0.1,0,0.2,0,0.3c-0.4,3.9-0.8,7.7-1.2,11.2c-0.3,2.8-0.6,6-0.1,6.1h0.1C1525.1,256.7,1528.3,254.7,1531.5,252.7L1531.5,252.7z
	 M1872.6,311.5c-1.8-6.3-3.2-13-4.3-19.9c-4.1-24.2-3.7-49.1-3.6-70.2c0.2-13.8-0.4-26.6-3.4-38c-1.5-5.6-3.1-11.7-6.6-16.2
	c-3.3-4.2-7.8-7.6-11.1-12c1.3,1.8-3.2,9.5-4.1,12.1c-1.7,4.7-3.8,9.9-6.3,15.6c-3.2,7.3-6.7,15.2-12.4,23.4
	c-4.4-5.6-6.8-14-11.1-22.4c-3-6-7.1-12.9-13.1-18.1c-5.9-5.2-15.4-6.5-18.2,1c-0.6,1.4-0.6,3.2-0.6,4.8
	c-0.3,19.5-1.5,37.9-3.8,56.1c-3.5,25.7-9.9,46.2-14.2,66.6c5.7,1.6,13,4,17.4,0.3c3.7-3,4.9-9,5.6-13.8c2.7-19.9,7.5-40,10.5-60
	c1.2-7.8,1.8-15.8,1.9-23.9c3.4,6.4,5.2,13.3,7.7,19s5.9,10.1,11.9,9.9c3.5-0.1,8.2-2.2,12.2-6.2c3.7-3.7,6.1-8.2,8.1-12.3
	c4.5-9,8.4-17.3,11.9-24.5c-1,2.3,1.6,8.7,1.8,10.9c0.6,4.8,1.1,9.7,1.4,14.8c0.6,10.2,0.6,21,0.5,32.6c-0.1,11.2-0.2,23.1,0.6,35.7
	c0.8,12.1,2.2,24.6,8.8,36.5c0.8,1.4,2,2.5,3.1,3.6c0.5,0.5,1,1,1.5,1.5s1,1,1.5,1.5c0.6-1.9,1.3-3.7,2-5.4c3,3.8,6.2,7.3,9.3,10.3
	c-0.7-1.7-1.5-3.5-2.1-5.3C1874.3,317.1,1873.4,314.3,1872.6,311.5z M2049.4,301.5c-2.7-0.3-5.4-0.4-8.1-0.6
	c-12.1-0.8-25.9,1-39,3.6c-8.8,1.7-17.6,3.7-26.3,4.6c-3.3,0.3-6.7,0.6-10.2,0.6c0-0.2,0-0.4,0-0.6c0.2-2.1,0.5-4.1,0.9-6.2
	c-0.1-6.6,0.8-37.4,13.7-40.9c4.1-1.2,8.4-1.8,12.6-4.2c4.2-2.3,8.6-7.2,8.4-10.9c-0.1-2.7-2.8-3.8-5.7-3.7
	c-2.9,0.1-6.2,1.3-9.3,2.2c-2.3,0.7-4.6,1.3-6.9,1.7c-1.1,0.2-2.2,0.3-2.9-0.4c-0.6-0.6-0.6-1.6-0.6-2.5c0.3-9.1,3.5-38.4,0.7-49.8
	c-0.3-1.5-0.6-3.1-0.2-4.4c0.6-2.1,2.7-2.8,4.6-3.1c5.7-1,11.7-1,17-3.5c3.5-1.8,12.3-9.7,6.9-15.4c-1.8-2-4.5-2.7-7.4-2.8
	c-6.2-0.2-13.7,2.6-16.5,3.3c-4.9,1-10.1,1.3-15.6,0.8c-3.1-0.4-9.9-2.7-12.1-0.8c-2.3,1.8,8.5,23.9,8.4,30.4
	c2,12-1.1,34.5-4.7,54.7c-3.8,20.5-4.7,38.7-4.6,47.8c-0.2,4.4,0.4,9.9,5,13.4c2.2,1.7,5,2.5,7.6,3.1c21.9,4.6,42.5,2.1,62.5-0.3
	c10.2-1.1,20.6-1.3,31.5,0.2c9.3,1.6,22.7,7.9,23.7-2.5c0.1-0.4,0.1-0.7,0.2-1.1c-0.4-0.3-0.9-0.6-1.4-0.9
	C2070.3,305.5,2059.7,302.4,2049.4,301.5z M1937.2,306.6c-2.5-3.8-5.1-7.1-7.5-9.6c-0.2-0.2-0.5-0.5-0.7-0.7
	c-5.5-5.6-11.2-7.1-17.2-8.3c-1.2-0.2-3.9-0.2-4.4-1.2c-1-2.1,1.2-4.1,3.7-7.4c8.5-11.7,16.5-23.1,18.2-30.9c0.6-2.5-0.1-5.4-3-5.9
	c-6.9,7.6-17.3,26.4-27.9,35.6c0.1-12-0.5-28.4-9.9-39.2c5,14.3,2.3,27.1,0.2,40.8c-2.2,13.4-3.9,27.7,2.2,40.2
	c0.5-1.7,1.2-3.3,1.9-4.8c1.6,0.7,3.1,1.2,4.6,1.6c0.5-5,0.7-10.8,0.4-17c8.7,6.3,17.4,6.3,28.1,15.3c2.4,1.8,5.1,3.9,7.9,4.8
	c2.9,0.9,10-0.3,7.8-4.4C1940.4,312.7,1939.1,309.5,1937.2,306.6z M2159.5,327.1c-2.8,7.5-12.1,9.3-24.4,5.7
	c-12.1-3.4-26.5-12-33.8-19.9c-9.6-10.8-13.6-22.1-16.8-32.4s-6.3-19.8-14.5-25.3c-7.6-5.1-19-6.5-30-6.8c-1.4,0-2.9-0.1-4.3,0.4
	c-4.1,1.4-5.1,6.4-5.7,10.6c-1.6,10.9-4.1,20.7-7.3,29.1c-2.3,6.5-6.7-2.1-6.1-6.2c2.8-26.4,8.6-64.7,1-98.7
	c-2.6-12.3-7.7-23.3,6.3-23.4c0.1,0,0.2,0,0.4,0c13.4,0.4,29.4,5.1,43,15c11,8.1,19.5,19.7,15.3,31.1c-2.7,7.5-10.1,13.6-17.4,17.5
	c-5.8,3.1-11.9,4.8-17.6,6.8c-3.4,1.2-8.4,4.6-11.4,4.6c18,0.2,37.6,1.4,49.9,9.5c12.8,8.3,13,24,17.1,41.9
	c1.6,7,5.2,15.9,12.3,20.6c7.6,5.1,14.9,1.4,19.8-4.1c3.9-4.5,6.7-10.3,9.3-15.9c4-8.8,8.3-19.8,4.1-30.6
	c-3.8-9.6-13.2-13.8-20.8-17c-19.1-7.4-26.8-19-20.3-41c3.3-11.6,8.3-21.4,19.1-22.1c10.6-0.9,27.8,8.1,30.9,19.2
	c-2.9,1.4-7.6,1-12-0.6c-4-1.5-8.1-4-11.9-4c-3.3,0.1-5.6,2.1-7.4,4.4c-4.5,6-7.6,15.5-4.2,22.3c3.5,7.1,11.5,9.1,19.7,13.4
	c8.2,4,16.5,10.3,20.1,20.8c4.6,13.2,2.7,26.9,3.3,38.7c0,0.5,0,0.9,0.1,1.4C2165.6,302.2,2165.2,313.7,2159.5,327.1z M2038.1,214.7
	c0.1,1.1,0.2,2.2,0.3,3.2c0.1,0.8,0.2,1,0.3,1.1c0,0,0.1,0,0.2,0c0.2,0,0.6-0.1,1.4-0.4c0.9-0.4,1.9-0.8,2.8-1.3
	c2.7-1.3,5.6-2.7,8.2-4.6c4.5-3.1,9.1-7,13.3-11.2c1.8-1.9,2.2-4,1.2-6.9c-3.7-10.2-8.8-13.7-18.4-13.8c-4.8-0.1-9.6-0.4-14.4-1
	C2034.8,191.8,2036.9,203.6,2038.1,214.7z M1882.7,227.6c-0.6-0.3-1.1-0.7-1.5-1.2c-0.7-0.9-0.6-1.9-0.5-2.8
	c0.9-6.2,5.2-11.3,7.5-18.7c-2.6-1.8-5.5-4.2-8-8.2c-0.6-0.9-1.2-2.1-1.5-3.2c-0.3-1.5,0.1-2.4,0.9-2.3c2.2,1,9.1,4.9,12.1,3.9
	c0.7-0.1,1.4-0.2,2-0.7c0.8-0.7,1.3-1.8,1.6-2.8c3.2-9.3,5.7-19.2,5.8-28.5c0-0.6,0-3.6,1.6-4.1c0.4-0.1,0.8-0.2,1.3-0.2
	c1.2,0,2.5,0.5,3.5,1.1c6.8,4.4,10.3,8.6,13.2,13.5c1.3,2,2.5,6.6,5.8,7.2c1.2,0.2,2.4,0.3,3.5,0.8c2.1,0.9,3.7,3.4,4.6,6.1
	c0.7,2.1,1,4.2,1.2,6.3c0.1,0.6,0.1,1.2,0.2,1.9c-2.4-2.2-4.9-3.2-7.6-3.3c-0.4,0-0.9,0-1.2,0.2c-2,1.1-0.9,7.2-0.9,9.3
	c0.1,4.1,0.1,8.3,0.3,12.7c0.4,8.7,1.3,17.6,4,26.5c-3.2-3.9-5.9-10.2-8.8-13.3c0.2,1.7,0.2,3.6,0.4,5.4c-1,0.4-2,0.8-3.1,1.2
	c-4.4-13.4-4.7-24.6-5.8-34.4c-0.1-0.9-0.2-1.7-0.7-2.2c-1.4-1.4-7.1,2.2-8.6,5.4c-0.8,1.7-1.6,3.4-2.4,5.1
	c-3.2,6.5-6.6,19.6-13.2,20.9C1886.6,229.4,1884.6,228.6,1882.7,227.6z M1909.4,187.2C1909.4,187.2,1909.5,187.2,1909.4,187.2
	c0.6,0,2.5-1.2,4-2.1c-0.1-0.6-0.2-1.3-0.3-1.9c-0.4-2.5-0.9-5-1.6-7.5c-0.1-0.3-0.2-0.6-0.2-0.9c-0.2-0.9-0.3-1.6-0.9-2.2
	c-0.6,3.7-0.6,7.4-1,11.1C1909.2,184.6,1908.9,187.1,1909.4,187.2z"/>
<path class="st2" d="M696.1,24.8c-7.4-7.4-17.3-11.5-27.7-11.5c-10.5,0-20.3,4.1-27.7,11.5c-15.3,15.3-15.3,40.2,0,55.5
	c0.6,0.6,1.3,1.1,1.9,1.6c-2.1-4.1-3.2-8.6-3.2-13.3c0-7.7,3-15,8.5-20.5s12.8-8.5,20.5-8.5s15,3,20.5,8.5s8.5,12.8,8.5,20.5
	c0,4.7-1.1,9.2-3.2,13.3c0.7-0.5,1.3-1,1.9-1.6C711.4,65,711.4,40.1,696.1,24.8z"/>
<text transform="matrix(1 0 0 1 633.279 -66.5112)" style="fill:#3C3D3E; font-family:'AvenirNext-Bold'; font-size:27.0673px; letter-spacing:1;">TRAVEL</text>
<text transform="matrix(1 0 0 1 752.079 -66.5112)" class="st2" style="font-family:'AvenirNext-Medium'; font-size:27.0673px; letter-spacing:1;">SUN</text>
<g>
	<path class="st3" d="M11.5,44.3l-2.7-2L6,46.1l0.8,0.6l1.1-1.5l1,0.7l0.6-0.8l-1-0.7L9,43.6l1.9,1.4L11.5,44.3z M14.8,47.6
		c0-0.3,0-0.6-0.1-0.9c-0.1-0.3-0.2-0.6-0.4-0.8s-0.4-0.4-0.7-0.6c-0.3-0.1-0.6-0.2-0.9-0.2c-0.3,0-0.6,0-0.9,0.1
		c-0.3,0.1-0.6,0.2-0.8,0.5c-0.2,0.2-0.4,0.5-0.6,0.7c-0.1,0.3-0.2,0.6-0.2,0.9c0,0.3,0,0.6,0.1,0.9c0.1,0.3,0.2,0.6,0.4,0.8
		s0.4,0.4,0.7,0.6c0.3,0.1,0.6,0.2,0.9,0.2c0.3,0,0.6,0,0.9-0.1c0.3-0.1,0.5-0.2,0.8-0.4c0.2-0.2,0.4-0.4,0.6-0.7
		C14.7,48.2,14.7,47.9,14.8,47.6 M13.3,48.5c-0.1,0.1-0.3,0.2-0.5,0.3s-0.4,0.1-0.5,0.1c-0.2,0-0.4-0.1-0.5-0.1
		c-0.2-0.1-0.3-0.2-0.4-0.3c-0.1-0.1-0.2-0.3-0.3-0.5C11,47.7,11,47.5,11,47.3s0.1-0.4,0.1-0.5l0.1-0.1l0.1-0.1
		c0.1-0.1,0.2-0.2,0.4-0.3c0.1-0.1,0.2-0.1,0.4-0.2c0.1,0,0.2-0.1,0.4-0.1c0.1,0,0.2,0,0.3,0s0.2,0.1,0.3,0.1c0,0,0,0,0.1,0l0.1,0.1
		c0,0,0.1,0,0.1,0.1l0.1,0.1c0.1,0.1,0.2,0.3,0.3,0.4c0.1,0.1,0.1,0.3,0.1,0.4c0,0.1,0,0.3,0,0.4c0,0.1-0.1,0.3-0.1,0.4
		C13.6,48.2,13.4,48.4,13.3,48.5 M19.6,47.4l-0.9-0.3l-0.8,2.7c0,0,0,0,0,0.1c0,0,0,0.1-0.1,0.1c-0.1,0.1-0.2,0.2-0.2,0.3
		c-0.1,0.1-0.2,0.1-0.3,0.2c-0.1,0-0.2,0.1-0.3,0.1c-0.1,0-0.2,0-0.3,0c-0.2,0-0.3-0.1-0.5-0.3c-0.1-0.1-0.2-0.3-0.3-0.6v-0.1v-0.1
		l0,0l0,0l0.8-2.7l-0.9-0.3L15,49.1l0,0c0,0,0,0,0,0.1v0.1v0.1c0,0,0,0,0,0.1v0.1c0,0.1,0,0.2,0,0.2c0,0.1,0,0.3,0.1,0.4
		c0.1,0.1,0.1,0.3,0.2,0.4c0.1,0.2,0.2,0.3,0.3,0.4c0.1,0.1,0.2,0.2,0.4,0.3c0.1,0,0.1,0.1,0.2,0.1s0.1,0.1,0.2,0.1s0.2,0.1,0.4,0.1
		c0.1,0,0.3,0,0.4,0h0.1h0.1c0.1,0,0.3-0.1,0.4-0.2c0.2-0.1,0.3-0.2,0.4-0.3s0.2-0.2,0.3-0.3c0.1-0.1,0.2-0.2,0.2-0.4v-0.1v-0.1
		L19.6,47.4z M24.1,47.9l-1-0.1l-0.3,3L21,47.6l-1-0.1l-0.4,4.7l1,0.1l0.3-3l1.8,3.2l1,0.1L24.1,47.9z M28.8,49.6
		c0-0.2-0.1-0.3-0.2-0.5c0,0,0-0.1-0.1-0.1c0,0,0-0.1-0.1-0.1c-0.1-0.1-0.2-0.2-0.3-0.3c-0.1-0.1-0.2-0.2-0.3-0.3
		c-0.1-0.1-0.2-0.2-0.3-0.2C27.4,48,27.3,48,27.2,48h-0.1c-0.1,0-0.1,0-0.2,0s-0.1,0-0.2,0s-0.1,0-0.2,0l-1.8,0.1l0.2,4.7l1.8-0.1
		h0.1c0.1,0,0.1,0,0.2,0s0.1,0,0.1,0h0.1c0.3-0.1,0.5-0.2,0.7-0.4s0.4-0.4,0.5-0.6c0.1-0.2,0.2-0.4,0.3-0.7c0.1-0.2,0.1-0.4,0.1-0.7
		C28.8,49.9,28.8,49.7,28.8,49.6 M27.8,50.5c0,0.1-0.1,0.3-0.2,0.4c-0.1,0.1-0.2,0.2-0.3,0.4c-0.1,0.1-0.3,0.2-0.5,0.2h-0.1
		c-0.1,0-0.1,0-0.1,0h-0.8l-0.1-2.8h0.7h0.1h0.1h0.1h0.1c0.2,0.1,0.3,0.1,0.4,0.2c0.1,0.1,0.2,0.2,0.3,0.3c0.1,0.1,0.1,0.2,0.2,0.4
		c0,0.1,0.1,0.2,0.1,0.4C27.9,50.2,27.9,50.4,27.8,50.5 M30.6,47.5l-1.7,5l1.1-0.1l0.3-0.8l1.6-0.2l0.4,0.7l1.1-0.1L30.6,47.5z
		 M30.5,50.6l0.3-0.8l0.4,0.7L30.5,50.6z M35.8,46.7l-4,0.7l0.2,0.9l1.5-0.3l0.7,3.7l1-0.2l-0.7-3.7l1.5-0.3L35.8,46.7z M37.2,46.3
		l-0.9,0.2l1.2,4.6l0.9-0.2L37.2,46.3z M42.5,46c-0.2-0.2-0.5-0.4-0.7-0.5c-0.3-0.1-0.6-0.2-0.9-0.2c-0.3,0-0.6,0-0.9,0.2
		c-0.3,0.1-0.6,0.3-0.8,0.5s-0.4,0.5-0.5,0.7c-0.1,0.3-0.2,0.6-0.2,0.9c0,0.3,0,0.6,0.2,0.9c0.1,0.3,0.3,0.6,0.5,0.8
		s0.5,0.4,0.7,0.5c0.3,0.1,0.6,0.2,0.9,0.2c0.3,0,0.6,0,0.9-0.2c0.3-0.1,0.6-0.3,0.8-0.5s0.4-0.5,0.5-0.7c0.1-0.3,0.2-0.6,0.2-0.9
		c0-0.3,0-0.6-0.2-0.9C42.8,46.5,42.7,46.2,42.5,46 M42.2,47.7c0,0.2-0.1,0.4-0.1,0.5c-0.1,0.2-0.2,0.3-0.3,0.4
		c-0.1,0.1-0.3,0.2-0.5,0.3C41.1,49,40.9,49,40.7,49s-0.4,0-0.5-0.1c-0.2-0.1-0.3-0.2-0.4-0.3c-0.1-0.1-0.2-0.3-0.3-0.5
		c0-0.1,0-0.1,0-0.1v-0.1c0-0.1,0-0.3,0-0.5c0-0.1,0.1-0.3,0.1-0.4c0.1-0.1,0.1-0.2,0.2-0.3c0.1-0.1,0.2-0.2,0.3-0.2
		c0.1-0.1,0.2-0.1,0.3-0.1c0,0,0,0,0.1,0h0.1h0.1h0.1c0.2,0,0.3,0,0.5,0.1c0.1,0,0.3,0.1,0.4,0.2c0.1,0.1,0.2,0.2,0.3,0.3
		s0.1,0.2,0.2,0.3C42.1,47.3,42.2,47.5,42.2,47.7 M45.7,42.3l-0.8,0.5l1.6,2.6l-3.4-1.5l-0.8,0.5l2.5,4l0.8-0.5L44,45.4l3.4,1.5
		l0.8-0.5L45.7,42.3z"/>
	<path class="st3" d="M22.8,0.5c0,0,1.7-0.5,3.2-0.5c0,0-1.1,11.8,2.5,11.4c3.7-0.4,2-11.3,2-11.3s1.4,0.1,3.2,0.6
		c0,0,2,14.5-5.2,14.9C21.5,15.9,22.8,0.5,22.8,0.5 M13.2,12.9c0,0,1.7-0.8,2.1-2.3c0,0-1.9-3.5,0.4-5c0,0,1.9-1.5,3.3,1.6
		c0,0,3.4,6.9-1.3,7c0,0-0.7,0.9-2.2,1.8c0,0,5.2,3.3,6.9-2c0,0,1.1-3.7-1-8.3c0,0-2.5-5.3-5.8-3.8C15.5,2,9.9,4,13.2,12.9
		 M16.2,29.9l3.7,0.6l0.7-2.6l-3.7-0.6L16.2,29.9z M10.9,26.9c0,0,2.4-2.3,2.4-9.3c0,0-0.7,0.4-1.4,0.6c-0.8,0.2-2.7,0.5-2.7,0.5
		s0.4,7.4-3.6,7.1c-2.4-0.2-3.3-3.2-1.2-5.4c0,0,1.7-2.1,4.2-2.4c0,0,8.2-0.7,10.5-7.3c0,0-0.6-3.5-1.5-4.2c0,0-1.2,5.3-3.6,6.8
		c-2.2,1.4-3.9,1.9-6.9,2.2c0,0-4.3,0-6.3,4.9c0,0-1.9,3.9,0.6,6.6C1.3,27.1,5.9,32.1,10.9,26.9 M30.5,16.2c3.2,1.9,4.1,2.9,4.1,2.9
		c1.3-2.3,2.2-5.9,2.2-5.9l0.3,8.5c1.8,0.2,2.5,0.5,2.5,0.5L46.9,8c-1-1.1-3.6-3-3.6-3l-3.5,10c0,0,0.9-8.5-0.9-12.6
		C38.8,2.1,35,1.2,35,1.2C35.9,16.1,30.5,16.2,30.5,16.2 M30.1,34.8l3.8-0.2v-0.3c-0.5-0.4-1.5-1.4-1.9-3.2l-1.8,0.2L30.1,34.8z
		 M36.4,21.9C33.4,18.7,30,17,30,17c-2.5,1.5-3.5,5.4-3.5,5.4l-4.2-6.8c0,0-0.6,2.1-3.1,2.4c-2.2,0.2-4.5-1.2-4.5-1.2l-0.8,4.4
		l4.4,0.7l-1.4,4.7l3.7,0.7l0.8-2.8l5.3,6.3l4.9-0.3C31,27.2,32,25.2,32,25.2C33.6,22.1,36.4,21.9,36.4,21.9 M7.8,14.8
		c0,0,1.4-0.2,2.2-0.5s2.2-0.9,2.2-0.9s-0.6-2.3-2.7-1.6c0,0-2.3,1-2.6,0.2c-0.3-1.2,1.6-2.5,4.5-3.2c0,0-0.6-2.8,1.3-5.4
		c0,0-10.3,5.3-9.5,10C3.2,13.4,3.6,15.6,7.8,14.8 M38.5,28.1c-1.6,0.5-2.2,1.8-2.2,1.8c0,0.8,1.6,2,2.2,2.2c0,0,0.1-0.6,0.9-0.7
		c1.9-0.2,2.5,2,2.9,3.1c0.4,1.2,0.5,2.9,0.1,4.1c-0.4,1.3-2.5,2.3-3.6,0.9c-0.5-0.7-0.7-1.9-0.6-2.7c-1.2-0.3-3.1-1.5-3.1-1.5
		c0,10.5,7,7,7,7c5.5-2.2,2.1-11,2.1-11C42.6,28.2,40.2,27.6,38.5,28.1 M40.2,33.6c0,0-4.9-0.6-5-4.9c0,0,0.1-4.7,4.5-3.3
		c0,0,8.5,4.1,12.4-1.7c0,0,4.9-5.5-4.3-14.9l-7.2,13.5c0,0,2.5,0.8,3.4,0.8l4.8-9.2c0,0,3.6,4,0.6,8.2c0,0-1.7,3.4-8.7,1
		c0,0-6-2.3-7.8,2.5c0,0-3.3,8.8,8.6,11.2C41.4,36.8,41.5,35.2,40.2,33.6 M50.3,26.5c0.3,2.1-0.4,3.5-0.4,3.5l-3-2.3
		c-2,0.2-4.9-0.6-4.9-0.6c6.3,4.9,3.8,12.4,3.8,12.4c1.2-0.7,3.1-3.3,3.1-3.3c0.4-0.7-0.6-4.2-0.6-4.2c1.1,1,2.1,2.3,2.1,2.3
		l1.8-1.9c1.3-4.5,0.7-8.4,0.7-8.4C51.9,26,50.3,26.5,50.3,26.5 M16,30.7l-3.2,12l4,1.9l2.9-13.3L16,30.7z M30.1,35.6L29.7,46
		l4.7-0.9L34,35.3L30.1,35.6z M13.9,22.1L10.1,36c0,0-2.2-1.7-3.6-5.9c0,0-2.7,1-5.5-2.2c0,0,3.5,10.6,10.8,14.2l5.4-19.5L13.9,22.1
		z M24.8,36.8c0,0-3.2-1.4-1.6-3c0,0,1.5-1.4,3,0.7c0.4,0.5,0.6,1.1,0.5,2.4c0.7,0.4,1.3,0.9,1.8,1.6c0.4-0.8,1.8-4.3-1.6-6.6
		c0,0-4.1-2.6-6.5,1c0,0-1.4,2.4,0.5,4.5s5.2,2.2,4.9,4.5c0,0-0.2,1.9-3.2,1.1c-2.9-0.8-0.6-3.5-0.6-3.5s-1.1-0.7-2-1.9
		c0,0-4.4,6.6,1.5,8.5c0,0,6.2,1.6,6.9-3.6C28.9,38.4,26.9,38,24.8,36.8"/>
	<polygon class="st3" points="47.3,41.5 47,41.8 46.8,41.7 47.7,40.9 47.8,41 47.4,41.4 48.4,42.3 48.3,42.5 	"/>
	<path class="st3" d="M49.3,40.5c-0.2-0.1-0.4-0.3-0.5-0.5l0,0c0.1,0.2,0.2,0.3,0.3,0.6l0.3,0.7l-0.1,0.1l-0.7-0.3
		c-0.2-0.1-0.4-0.2-0.5-0.3l0,0c0.1,0.1,0.3,0.3,0.5,0.5l0.4,0.5l-0.1,0.1l-1-1.2l0.2-0.2l0.7,0.3c0.2,0.1,0.3,0.2,0.5,0.3l0,0
		c-0.1-0.1-0.2-0.3-0.3-0.5l-0.3-0.7l0.2-0.2l1.2,1L50,40.8L49.3,40.5z"/>
</g>
</svg>
