<?xml version="1.0" encoding="utf-8"?>
<!-- Generator: Adobe Illustrator 23.0.4, SVG Export Plug-In . SVG Version: 6.00 Build 0)  -->
<svg version="1.1" id="Layer_1" xmlns="http://www.w3.org/2000/svg" xmlns:xlink="http://www.w3.org/1999/xlink" x="0px" y="0px"
	 viewBox="0 0 294.8 124.6" style="enable-background:new 0 0 294.8 124.6;" xml:space="preserve">
<style type="text/css">
	.st0{fill-rule:evenodd;clip-rule:evenodd;}
	.st1{fill:#FDDA30;}
	.st2{fill:#FAA82A;}
	.st3{fill:#FFFFFF;}
	.st4{fill:none;stroke:#FFFFFF;stroke-width:0.5;stroke-linecap:round;stroke-miterlimit:10;}
	.st5{fill-rule:evenodd;clip-rule:evenodd;fill:#FFFFFF;}
	.st6{fill:#3C3D3E;}
	.st7{fill:#41C2F1;}
	.st8{fill-rule:evenodd;clip-rule:evenodd;fill:#FAA82A;}
</style>
<path class="st6" d="M294.8,83.3l0-0.2c0.1-2.2-0.9-4.4-2.9-6.5c-1.2-1.3-4.5-4.3-8.4-4.3l-0.4,0c-6.1,0.2-10,4.4-12.5,8.5
	c-1.1-3-3.7-5.5-7.5-6.1c0-0.2,0-0.3,0-0.5c0-2.1-0.7-4-1.8-5.5l-0.2-0.3c-1.6-1.9-4.2-3.1-7.2-3.1c-5.4,0-9.5,4.4-11.1,9.4
	c-3.1-0.5-6.3,0.2-9.3,1.6c-1.6-3.1-4.8-6-8.4-6c-0.7,0-1.4,0.1-2.1,0.3c0-0.5,0.1-0.9,0.1-1.4c0-6-3.9-10.1-9.5-10.1
	c-4.7,0-9.8,2.1-9.8,6.8v2l1.1,1.3c0,0.1,0,0.1,0,0.2c0,2.2-1.2,5.8-2.7,9.4c-1.4-2.6-4.4-4.2-7.7-4.2c-1.8,0-3.5,0.6-5.2,1.9
	c-1.8-1.2-3.9-1.8-6.3-1.8c-4.2,0-8.9,2.8-12.8,7.4c-0.8-3.9-4.1-7.4-9.2-7.6l-0.4,0c-2.1,0-4.5,0.9-7,2.4c-1.7-1.5-4-2.4-6.5-2.4
	c-2.5,0-4.8,0.8-7.1,2.2c-1.9-1.4-4.3-2.1-6.1-2.1c-1.6,0-2.9,0.4-4.1,1.2c-0.4,0.3-0.8,0.6-1.2,1c-2.1-1.6-4.7-2.5-7.3-2.5
	c-0.8,0-1.6,0.1-2.4,0.2c0,0,0,0,0-0.1c0-1.1-0.3-2.2-0.9-3.1c-0.5-0.7-1-1.3-1.7-1.8c0.8-2.3,0.1-4.6-1.3-6.1
	c-1.3-1.3-3.9-2.5-8.8-1c-2.6,0.8-5.2,2.2-6.5,3.6l-0.1,0.1C99,67,98.6,67.4,98.2,68c-0.5,0-0.9-0.1-1.3-0.1l-0.3,0
	c-2.1-0.2-2.7-0.2-3.2-0.2c-2.7,0-5.6,2.1-7.5,4.6c-0.1,0-0.1,0-0.2,0l-0.4,0c-5.4,0.2-9.1,3.4-11.6,7c-0.9-1.9-2.6-3.3-4.7-4.1
	c3-1,5.6-3.8,5.6-7.8c0-9.3-6.2-14.8-16.5-14.8C42.2,52.6,0,60.1,0,76.9c0,9.2,6.5,16.7,14.5,16.7c3.1,0,5.8-0.7,7.9-1.8
	c-3.1,7-5.6,13.6-5.6,18.8c0,5.2,2.9,9.6,7.9,12.3c1.2,0.6,3.7,1.7,6.4,1.7c1.6,0,3.1-0.4,4.3-1.2c1.9-1.3,2.9-3.6,2.6-5.8
	c-0.4-3-0.3-6.1,0.1-9.2c2.4,2.9,5.9,4.5,9.3,4.5c2.2,0,4.4-0.7,6.5-2c2.1,1.9,4.9,3,8.1,3c2.6,0,5.1-0.7,7.4-2
	c2.4,2.3,5.4,3.6,8.6,3.6c4.7,0,8.6-1.4,11.4-4c2,1.6,4.6,2.4,7.4,2.4c3.9,0,7.6-1.5,10.8-4.5c2.8,2.1,6.2,3.3,9.7,3.3
	c2.7,0,5.3-0.6,7.7-1.9c1.8,1.3,3.8,2.1,5.6,2.1c2.4,0,4.5-1.2,5.6-2.9c2,1.7,4.6,2.6,7.7,2.6c2.3,0,4.9-1,6-3.5
	c2.2,2.9,5.6,4.7,9.6,4.7c3.3,0,6.5-1.2,9.4-3.4c2.1,1.6,4.6,2.5,7.2,2.5c2.2,0,4.4-0.7,6.5-2c2.1,1.9,4.9,3,8.1,3
	c2.5,0,5-0.6,7.2-1.9c1.9,1.2,4,1.9,6.1,1.9c2.5,0,4.6-1.1,5.8-2.9c2.8,3,5.7,3.8,8,3.8c3.2,0,6.3-1.8,9.4-5.4
	c2.7,2.1,6.2,3.3,9.6,3.3c2.5,0,7.8-0.7,12.7-5.5c2,4.1,5.9,6.7,10.8,6.7c2.5,0,4.9-0.6,7.1-1.9c2.4,2.3,5.3,3.5,8.5,3.5
	c10.6,0,15.5-7.1,15.5-13.7c0-3.1-1.5-6.1-2.9-8.8C291.5,90.7,294.5,86.5,294.8,83.3z M29.6,76.5c-0.7,1.7-1.6,3.4-2.3,5.1
	c-0.5-1-1.4-1.6-2.4-2.1C26.2,78.5,27.7,77.5,29.6,76.5z M60.7,76.6c-1.8-1.2-3.9-1.8-6.3-1.8c-1.7,0-3.4,0.4-5.2,1.3
	c0.9-2.2,1.5-4,1.7-5.7c1-0.1,1.9-0.1,2.9-0.1c3.2,0,5.6,0.3,7.2,0.6c0.1,0.5,0.2,1,0.5,1.5c0.4,1,1.3,2,2.4,2.6
	C62.9,75.3,61.8,75.8,60.7,76.6z"/>
<g>
	<path class="st7" d="M45.2,66.8c-0.9-0.8-2.2-1.3-3.5-1.6c3.8-0.8,7.9-1.3,12.2-1.3c8.6,0,13.5,1.9,13.5,3.8c0,0.9-1.4,1.7-0.7,1.7
		s2.5-0.6,2.5-2.7c0-6.9-4.7-9.3-11-9.3C37,57.3,5.5,66.6,5.5,76.1c0,5.8,3.8,11.2,9,11.2c5.3,0,7.9-2.8,7.9-3.7
		c0-0.9-7.5,0.7-7.5-2.2c0-2.1,8.7-10.8,22.9-15.1c2.2,6-15.5,32-15.5,43.4c0,7.5,10.5,10.1,10.2,7.6C29.6,94.5,48.6,70.3,45.2,66.8
		z"/>
	<path class="st7" d="M86.1,88.2c1.2,0,5.3-3.9,5.5-6.2c0.1-1.6-3.7-5-5.8-5c-0.1,0-0.2,0-0.2,0c-6.6,0.2-9.6,9-10.8,12.1
		c0,0,0,0,0,0.1c-0.9,1.8-4.8,7.5-7.7,7.5c-2.3,0-2.5-1.4-2.5-3.2c0-3.7,2.6-9.7,4-11.1c1.3-1.3-0.6-2.9-2.6-2.9
		c-1.6,0-3.9,2.3-5.9,5.5c-0.3-3-1.7-5.4-5.6-5.4c-5.3,0-13.8,9.2-13.8,19.5c0,5.1,3.7,7.6,6.7,7.6c2.8,0,5.6-2.4,7.9-5.7
		c0.2,2.6,1.7,6.6,6.7,6.6c3.5,0,6.4-2,8.6-4.7c1.3,3.1,3.7,6.2,7.5,6.2c7,0,10-4,10-8.2c0-4.2-5.7-10.1-5.7-14.7
		c0-1.7,3-4.3,4.6-4.3C89.2,81.9,85,88.2,86.1,88.2z M51.5,96.6c-1.5,0-2.6-1.3-2.6-3.1c0-3.5,3.8-9.1,6.8-9.1
		c1.4,0,1.8,1.9,1.8,3.8C57.6,91.9,54.1,96.6,51.5,96.6z M76.9,100.3c-1.4,0-2.6-0.8-3.7-1.7c1.1-2.1,1.8-4,2.3-5.5
		c0.1-0.1,0.1-0.2,0.2-0.3c0.7-1.8,1.3-3.6,2-5.2C79,92.8,83.9,100.3,76.9,100.3z"/>
	<path class="st7" d="M283.8,88.2c1.2,0,5.3-3.9,5.5-6.2c0.1-1.6-3.7-5-5.8-5c-0.1,0-0.2,0-0.2,0c-7.2,0.2-10.2,10.8-11.1,12.9
		c-0.1,0.2-0.1,0.3-0.2,0.5c-1.8,3-4.8,6.2-7,6.2c-1.9,0-2.4-1.8-2.4-2.8c0-4.5,3.1-8.2,3.1-10.4c0-1.4-0.9-3.9-4.2-3.9
		c-1.6,0-3.7,0.2-5.5,0.2c0.5-1.5,1.6-4.3,1.6-6.1c0-2.6-2-3.4-3.7-3.4c-3.5,0-6.3,4.4-6.3,8.2c0,2.3,1.1,3.9,2.8,4.9
		c-1,3.2-3.4,9.5-6.1,12.4c-1.6,1-3.4,1.5-5.7,1.5c-1.8,0-4.6-1.1-4.6-3.8c0-0.4,0.1-0.9,0.2-1.3c0.5,0.5,1.3,0.9,2.2,0.9
		c2.7,0,10.2-3.5,10.2-8.2s-4.5-5.4-5.8-5.4c-5.9,0-11.9,5.9-13.8,12.7c-2.2,2.6-5.5,5.8-8.7,5.8c-3.4,0-5-2.8-5-5
		c5.3-6.5,11.9-12.6,15.2-12.6c0.5,0,0.6-0.2,0.6-0.6c0-1.3-2.4-4.4-4-4.4c-4.2,0-12.3,11.2-17.7,19.9c2.5-8.6,10.1-18.7,10.1-26.5
		c0-2.1-0.9-4.6-4-4.6c-2,0-4.3,0.9-4.3,1.3c0,0.1,0,0.1,0,0.1c0.7,0.9,1.1,2,1.1,3.5c0,5-3.6,13.1-6.9,20.2c-0.1,0-0.1,0.1-0.2,0.2
		c-0.9,1.8-4.8,7.5-7.7,7.5c-2.3,0-2.5-1.4-2.5-3.2c0-3.7,2.6-9.7,4-11.1c1.3-1.3-0.5-2.9-2.6-2.9c-1.6,0-3.9,2.3-5.9,5.5
		c-0.3-3-1.7-5.4-5.6-5.4c-3.9,0-9.6,5-12.3,11.8c-1.8,2.7-4.4,5.3-6.4,5.3c-1.9,0-2.4-1.8-2.4-2.8c0-4.5,3.1-8.2,3.1-10.4
		c0-1.4-0.9-3.9-4.2-3.9c-2.4,0-8,3.2-11.4,8.9c1.1-2.1,1.9-3.4,1.9-4.9c0-1.4-0.9-3.9-4.2-3.9c-3.7,0-7.3,3.3-10.7,9.1
		c0.6-2.2,1.8-3,1.8-5.4c0-3.1-5.8-4.7-5.8-2.4c0,3.7-1.4,7-3,10.2c-2.2,3.6-5.3,6.3-10.3,6.3c-1.8,0-4.6-1.1-4.6-3.8
		c0-0.4,0.1-0.9,0.2-1.3c0.5,0.5,1.3,0.9,2.2,0.9c2.7,0,10.2-3.5,10.2-8.2s-4.5-5.4-5.8-5.4c-6,0-12.1,6.1-13.8,13.1
		c-1.6,2.1-3.9,4.3-5.7,4.3c-2.2,0-2.5-1.4-2.5-3.2c0-4.5,2.8-10.8,5.8-16.5c3,0,5.4,0,5.8,0c1.6,0,3.1-3.3,2.4-3.3
		c-2,0-4.1-0.1-6.3-0.2c1.7-3.1,3.2-5.2,3.9-5.9c1.8-1.8-5.2-0.2-7.3,2c-0.8,0.8-0.9,0.9-2.6,3.5c-3.9-0.3-7.1-0.6-7.5-0.6
		c-1.4,0-5.5,4.6-3.1,4.6c1,0,4.5,0,8.2,0c-4.3,7.3-8.6,16.3-8.6,23.4c0,2.4,1.3,7.2,6.8,7.2c4.9,0,8.5-3.9,10.8-7.9
		c1.5,4.1,5.6,6.8,9.6,6.8c3.5,0,6.3-1.6,8.5-3.8c0.8,2.3,3.7,4,4.7,4c0.5,0,1.1-0.3,1.1-0.5c0-8.4,11-20.3,12.2-20.3
		c0.3,0,0.3,0.3,0.3,0.6c0,4.3-6.2,10.4-6.2,14.4c0,3.5,2.2,5.7,6,5.7c1.6,0,0.9-0.6,1.3-2.4c2-7.9,10.1-18.2,12.3-18.2
		c0.3,0,0.3,0.3,0.3,0.6c0,1.7-5.1,7.2-5.1,13.3c0,4.5,2.4,7.9,6.8,7.9c4.3,0,7.7-3.2,10.1-6.7c0.8,3.9,3.9,5.8,6.5,5.8
		c2.8,0,5.6-2.4,7.9-5.7c0.2,2.6,1.7,6.6,6.7,6.6c3.2,0,5.8-1.7,7.9-3.9c0.8,2.6,3.7,3.9,5.4,3.9c1.5,0,1.5-0.9,1.5-1.8
		c0.5-2,2-4.7,4-7.7c1.3,4.5,4.3,10.4,8.2,10.4c2.9,0,6.6-4.7,9.3-9.2c1.4,4.3,5.6,7.1,9.7,7.1c8.6,0,13.4-9.8,14.5-14
		c1-2.5,2.3-5.8,3.3-8.1c0.1,0,0.2,0,0.4,0c0.5,0,3,0,4.2,0c0,0.2,0,0.2,0,0.4c0,1.7-5.7,9-5.7,15c0,4.5,2.4,7.9,6.8,7.9
		c3.3,0,6.1-1.9,8.3-4.4c1.3,3,3.7,6,7.4,6c7,0,10-4,10-8.2c0-4.2-5.7-10.1-5.7-14.7c0-1.7,3-4.3,4.6-4.3
		C286.9,81.9,282.7,88.2,283.8,88.2z M240.5,83.3c0.8,0,1.1,0.5,1.1,1.5c0,2-4.2,6.1-6.9,5.1C235.9,86.4,238.7,83.3,240.5,83.3z
		 M121,83.3c0.8,0,1.1,0.5,1.1,1.5c0,2-4.2,6.1-6.9,5.1C116.4,86.4,119.3,83.3,121,83.3z M180.1,96.6c-1.5,0-2.6-1.3-2.6-3.1
		c0-3.5,3.8-9.1,6.8-9.1c1.4,0,1.8,1.9,1.8,3.8C186.2,91.9,182.7,96.6,180.1,96.6z M274.7,100.3c-1.3,0-2.4-0.7-3.4-1.5
		c1.9-3.5,2.9-7,2.9-7.8c0,0,0,0,0-0.1c0.4-1.2,0.8-2.3,1.3-3.3C276.7,92.8,281.6,100.3,274.7,100.3z"/>
</g>
<g>
	<path class="st8" d="M137.5,44.3l-2.7-2l-2.8,3.8l0.8,0.6l1.1-1.5l1,0.7l0.6-0.8l-1-0.7l0.6-0.7l1.9,1.4L137.5,44.3z M140.7,47.6
		c0-0.3,0-0.6-0.1-0.9c-0.1-0.3-0.2-0.6-0.4-0.8c-0.2-0.2-0.4-0.4-0.7-0.6c-0.3-0.1-0.6-0.2-0.9-0.2c-0.3,0-0.6,0-0.9,0.1
		c-0.3,0.1-0.6,0.2-0.8,0.5c-0.2,0.2-0.4,0.5-0.6,0.7c-0.1,0.3-0.2,0.6-0.2,0.9c0,0.3,0,0.6,0.1,0.9c0.1,0.3,0.2,0.6,0.4,0.8
		c0.2,0.2,0.4,0.4,0.7,0.6c0.3,0.1,0.6,0.2,0.9,0.2c0.3,0,0.6,0,0.9-0.1c0.3-0.1,0.5-0.2,0.8-0.4c0.2-0.2,0.4-0.4,0.6-0.7
		C140.6,48.2,140.7,47.9,140.7,47.6 M139.3,48.5c-0.1,0.1-0.3,0.2-0.5,0.3c-0.2,0.1-0.4,0.1-0.5,0.1c-0.2,0-0.4-0.1-0.5-0.1
		c-0.2-0.1-0.3-0.2-0.4-0.3c-0.1-0.1-0.2-0.3-0.3-0.5c-0.1-0.2-0.1-0.4-0.1-0.5c0-0.2,0.1-0.4,0.1-0.5c0,0,0.1-0.1,0.1-0.1
		c0,0,0.1-0.1,0.1-0.1c0.1-0.1,0.2-0.2,0.4-0.3c0.1-0.1,0.2-0.1,0.4-0.2c0.1,0,0.2-0.1,0.4-0.1c0.1,0,0.2,0,0.3,0
		c0.1,0,0.2,0.1,0.3,0.1c0,0,0,0,0.1,0c0,0,0.1,0.1,0.1,0.1c0,0,0.1,0,0.1,0.1c0,0,0.1,0.1,0.1,0.1c0.1,0.1,0.2,0.3,0.3,0.4
		c0.1,0.1,0.1,0.3,0.1,0.4c0,0.1,0,0.3,0,0.4c0,0.1-0.1,0.3-0.1,0.4C139.5,48.2,139.4,48.4,139.3,48.5 M145.5,47.4l-0.9-0.3
		l-0.8,2.7c0,0,0,0,0,0.1c0,0,0,0.1-0.1,0.1c-0.1,0.1-0.2,0.2-0.2,0.3c-0.1,0.1-0.2,0.1-0.3,0.2c-0.1,0-0.2,0.1-0.3,0.1
		c-0.1,0-0.2,0-0.3,0c-0.2,0-0.3-0.1-0.5-0.3c-0.1-0.1-0.2-0.3-0.3-0.6c0,0,0-0.1,0-0.1c0,0,0-0.1,0-0.1c0,0,0,0,0,0c0,0,0,0,0,0
		l0.8-2.7l-0.9-0.3l-0.8,2.8c0,0,0,0,0,0c0,0,0,0,0,0.1c0,0,0,0.1,0,0.1c0,0,0,0.1,0,0.1c0,0,0,0,0,0.1c0,0,0,0.1,0,0.1
		c0,0.1,0,0.2,0,0.2c0,0.1,0,0.3,0.1,0.4c0.1,0.1,0.1,0.3,0.2,0.4c0.1,0.2,0.2,0.3,0.3,0.4c0.1,0.1,0.2,0.2,0.4,0.3
		c0.1,0,0.1,0.1,0.2,0.1c0.1,0,0.1,0.1,0.2,0.1c0.1,0,0.2,0.1,0.4,0.1c0.1,0,0.3,0,0.4,0c0,0,0.1,0,0.1,0c0,0,0.1,0,0.1,0
		c0.1,0,0.3-0.1,0.4-0.2c0.2-0.1,0.3-0.2,0.4-0.3c0.1-0.1,0.2-0.2,0.3-0.3c0.1-0.1,0.2-0.2,0.2-0.4c0,0,0-0.1,0-0.1c0,0,0-0.1,0-0.1
		L145.5,47.4z M150.1,47.9l-1-0.1l-0.3,3l-1.8-3.2l-1-0.1l-0.4,4.7l1,0.1l0.3-3l1.8,3.2l1,0.1L150.1,47.9z M154.8,49.6
		c0-0.2-0.1-0.3-0.2-0.5c0,0,0-0.1-0.1-0.1c0,0,0-0.1-0.1-0.1c-0.1-0.1-0.2-0.2-0.3-0.3c-0.1-0.1-0.2-0.2-0.3-0.3
		c-0.1-0.1-0.2-0.2-0.3-0.2c-0.1-0.1-0.2-0.1-0.3-0.1c0,0-0.1,0-0.1,0c-0.1,0-0.1,0-0.2,0c-0.1,0-0.1,0-0.2,0c-0.1,0-0.1,0-0.2,0
		l-1.8,0.1l0.2,4.7l1.8-0.1c0,0,0.1,0,0.1,0c0.1,0,0.1,0,0.2,0c0.1,0,0.1,0,0.1,0c0,0,0.1,0,0.1,0c0.3-0.1,0.5-0.2,0.7-0.4
		c0.2-0.2,0.4-0.4,0.5-0.6c0.1-0.2,0.2-0.4,0.3-0.7c0.1-0.2,0.1-0.4,0.1-0.7C154.8,49.9,154.8,49.7,154.8,49.6 M153.8,50.5
		c0,0.1-0.1,0.3-0.2,0.4c-0.1,0.1-0.2,0.2-0.3,0.4c-0.1,0.1-0.3,0.2-0.5,0.2c0,0-0.1,0-0.1,0c-0.1,0-0.1,0-0.1,0l-0.8,0l-0.1-2.8
		l0.7,0c0,0,0.1,0,0.1,0c0,0,0.1,0,0.1,0c0,0,0.1,0,0.1,0c0,0,0.1,0,0.1,0c0.2,0.1,0.3,0.1,0.4,0.2c0.1,0.1,0.2,0.2,0.3,0.3
		c0.1,0.1,0.1,0.2,0.2,0.4c0,0.1,0.1,0.2,0.1,0.4C153.9,50.2,153.9,50.4,153.8,50.5 M156.6,47.5l-1.7,5l1.1-0.1l0.3-0.8l1.6-0.2
		l0.4,0.7l1.1-0.1L156.6,47.5z M156.5,50.6l0.3-0.8l0.4,0.7L156.5,50.6z M161.8,46.7l-4,0.7l0.2,0.9l1.5-0.3l0.7,3.7l1-0.2l-0.7-3.7
		l1.5-0.3L161.8,46.7z M163.2,46.3l-0.9,0.2l1.2,4.6l0.9-0.2L163.2,46.3z M168.4,46c-0.2-0.2-0.5-0.4-0.7-0.5
		c-0.3-0.1-0.6-0.2-0.9-0.2c-0.3,0-0.6,0-0.9,0.2c-0.3,0.1-0.6,0.3-0.8,0.5c-0.2,0.2-0.4,0.5-0.5,0.7c-0.1,0.3-0.2,0.6-0.2,0.9
		c0,0.3,0,0.6,0.2,0.9c0.1,0.3,0.3,0.6,0.5,0.8c0.2,0.2,0.5,0.4,0.7,0.5c0.3,0.1,0.6,0.2,0.9,0.2c0.3,0,0.6,0,0.9-0.2
		c0.3-0.1,0.6-0.3,0.8-0.5c0.2-0.2,0.4-0.5,0.5-0.7c0.1-0.3,0.2-0.6,0.2-0.9c0-0.3,0-0.6-0.2-0.9C168.8,46.5,168.7,46.2,168.4,46
		 M168.1,47.7c0,0.2-0.1,0.4-0.1,0.5c-0.1,0.2-0.2,0.3-0.3,0.4c-0.1,0.1-0.3,0.2-0.5,0.3c-0.2,0.1-0.4,0.1-0.5,0.1
		c-0.2,0-0.4,0-0.5-0.1c-0.2-0.1-0.3-0.2-0.4-0.3c-0.1-0.1-0.2-0.3-0.3-0.5c0-0.1,0-0.1,0-0.1c0,0,0-0.1,0-0.1c0-0.1,0-0.3,0-0.5
		c0-0.1,0.1-0.3,0.1-0.4c0.1-0.1,0.1-0.2,0.2-0.3c0.1-0.1,0.2-0.2,0.3-0.2c0.1-0.1,0.2-0.1,0.3-0.1c0,0,0,0,0.1,0c0,0,0.1,0,0.1,0
		c0,0,0.1,0,0.1,0c0,0,0.1,0,0.1,0c0.2,0,0.3,0,0.5,0.1c0.1,0,0.3,0.1,0.4,0.2c0.1,0.1,0.2,0.2,0.3,0.3c0.1,0.1,0.1,0.2,0.2,0.3
		C168.1,47.3,168.1,47.5,168.1,47.7 M171.7,42.3l-0.8,0.5l1.6,2.6l-3.4-1.5l-0.8,0.5l2.5,4l0.8-0.5l-1.6-2.6l3.4,1.5l0.8-0.5
		L171.7,42.3z"/>
	<path class="st8" d="M148.8,0.5c0,0,1.7-0.5,3.2-0.5c0,0-1.1,11.8,2.5,11.4c3.7-0.4,2-11.3,2-11.3s1.4,0.1,3.2,0.6
		c0,0,2,14.5-5.2,14.9C147.5,15.9,148.8,0.5,148.8,0.5 M139.2,12.9c0,0,1.7-0.8,2.1-2.3c0,0-1.9-3.5,0.4-5c0,0,1.9-1.5,3.3,1.6
		c0,0,3.4,6.9-1.3,7c0,0-0.7,0.9-2.2,1.8c0,0,5.2,3.3,6.9-2c0,0,1.1-3.7-1-8.3c0,0-2.5-5.3-5.8-3.8C141.5,2,135.9,4,139.2,12.9
		 M142.2,29.9l3.7,0.6l0.7-2.6l-3.7-0.6L142.2,29.9z M136.9,26.9c0,0,2.4-2.3,2.4-9.3c0,0-0.7,0.4-1.4,0.6c-0.8,0.2-2.7,0.5-2.7,0.5
		s0.4,7.4-3.6,7.1c-2.4-0.2-3.3-3.2-1.2-5.4c0,0,1.7-2.1,4.2-2.4c0,0,8.2-0.7,10.5-7.3c0,0-0.6-3.5-1.5-4.2c0,0-1.2,5.3-3.6,6.8
		c-2.2,1.4-3.9,1.9-6.9,2.2c0,0-4.3,0-6.3,4.9c0,0-1.9,3.9,0.6,6.6C127.3,27.1,131.9,32.1,136.9,26.9 M156.5,16.2
		c3.2,1.9,4.1,2.9,4.1,2.9c1.3-2.3,2.2-5.9,2.2-5.9l0.3,8.5c1.8,0.2,2.5,0.5,2.5,0.5l7.3-14.2c-1-1.1-3.6-3-3.6-3L165.8,15
		c0,0,0.9-8.5-0.9-12.6c-0.1-0.3-3.9-1.2-3.9-1.2C161.9,16.1,156.5,16.2,156.5,16.2 M156.1,34.8l3.8-0.2l0-0.3
		c-0.5-0.4-1.5-1.4-1.9-3.2l-1.8,0.2L156.1,34.8z M162.4,21.9c-3-3.2-6.4-4.9-6.4-4.9c-2.5,1.5-3.5,5.4-3.5,5.4l-4.2-6.8
		c0,0-0.6,2.1-3.1,2.4c-2.2,0.2-4.5-1.2-4.5-1.2l-0.8,4.4l4.4,0.7l-1.4,4.7l3.7,0.7l0.8-2.8l5.3,6.3l4.9-0.3
		c-0.8-3.1,0.2-5.2,0.2-5.2C159.6,22.1,162.4,21.9,162.4,21.9 M133.8,14.8c0,0,1.4-0.2,2.2-0.5c0.8-0.3,2.2-0.9,2.2-0.9
		s-0.6-2.3-2.7-1.6c0,0-2.3,1-2.6,0.2c-0.3-1.2,1.6-2.5,4.5-3.2c0,0-0.6-2.8,1.3-5.4c0,0-10.3,5.3-9.5,10
		C129.2,13.4,129.5,15.6,133.8,14.8 M164.5,28.1c-1.6,0.5-2.2,1.8-2.2,1.8c0,0.8,1.6,2,2.2,2.2c0,0,0.1-0.6,0.9-0.7
		c1.9-0.2,2.5,2,2.9,3.1c0.4,1.2,0.5,2.9,0.1,4.1c-0.4,1.3-2.5,2.3-3.6,0.9c-0.5-0.7-0.7-1.9-0.6-2.7c-1.2-0.3-3.1-1.5-3.1-1.5
		c0,10.5,7,7,7,7c5.5-2.2,2.1-11,2.1-11C168.6,28.2,166.2,27.6,164.5,28.1 M166.2,33.6c0,0-4.9-0.6-5-4.9c0,0,0.1-4.7,4.5-3.3
		c0,0,8.5,4.1,12.4-1.7c0,0,4.9-5.5-4.3-14.9l-7.2,13.5c0,0,2.5,0.8,3.4,0.8l4.8-9.2c0,0,3.6,4,0.6,8.2c0,0-1.7,3.4-8.7,1
		c0,0-6-2.3-7.8,2.5c0,0-3.3,8.8,8.6,11.2C167.4,36.8,167.5,35.2,166.2,33.6 M176.2,26.5c0.3,2.1-0.4,3.5-0.4,3.5l-3-2.3
		c-2,0.2-4.9-0.6-4.9-0.6c6.3,4.9,3.8,12.4,3.8,12.4c1.2-0.7,3.1-3.3,3.1-3.3c0.4-0.7-0.6-4.2-0.6-4.2c1.1,1,2.1,2.3,2.1,2.3
		l1.8-1.9c1.3-4.5,0.7-8.4,0.7-8.4C177.9,26,176.2,26.5,176.2,26.5 M141.9,30.7l-3.2,12l4,1.9l2.9-13.3L141.9,30.7z M156,35.6
		l-0.4,10.4l4.7-0.9l-0.4-9.8L156,35.6z M139.9,22.1L136.1,36c0,0-2.2-1.7-3.6-5.9c0,0-2.7,1-5.5-2.2c0,0,3.5,10.6,10.8,14.2
		l5.4-19.5L139.9,22.1z M150.8,36.8c0,0-3.2-1.4-1.6-3c0,0,1.5-1.4,3,0.7c0.4,0.5,0.6,1.1,0.5,2.4c0.7,0.4,1.3,0.9,1.8,1.6
		c0.4-0.8,1.8-4.3-1.6-6.6c0,0-4.1-2.6-6.5,1c0,0-1.4,2.4,0.5,4.5c1.9,2.1,5.2,2.2,4.9,4.5c0,0-0.2,1.9-3.2,1.1
		c-2.9-0.8-0.6-3.5-0.6-3.5s-1.1-0.7-2-1.9c0,0-4.4,6.6,1.5,8.5c0,0,6.2,1.6,6.9-3.6C154.9,38.4,152.8,38,150.8,36.8"/>
	<polygon class="st8" points="173.3,41.5 172.9,41.8 172.8,41.7 173.6,40.9 173.8,41 173.4,41.4 174.4,42.3 174.2,42.5 	"/>
	<path class="st8" d="M175.3,40.5c-0.2-0.1-0.4-0.3-0.5-0.5l0,0c0.1,0.2,0.2,0.3,0.3,0.6l0.3,0.7l-0.1,0.1l-0.7-0.3
		c-0.2-0.1-0.4-0.2-0.5-0.3l0,0c0.1,0.1,0.3,0.3,0.5,0.5l0.4,0.5l-0.1,0.1l-1-1.2l0.2-0.2l0.7,0.3c0.2,0.1,0.3,0.2,0.5,0.3l0,0
		c-0.1-0.1-0.2-0.3-0.3-0.5l-0.3-0.7l0.2-0.2l1.2,1l-0.1,0.1L175.3,40.5z"/>
</g>
</svg>
