<?xml version="1.0" encoding="utf-8"?>
<!-- Generator: Adobe Illustrator 23.0.4, SVG Export Plug-In . SVG Version: 6.00 Build 0)  -->
<svg version="1.1" id="Layer_1" xmlns="http://www.w3.org/2000/svg" xmlns:xlink="http://www.w3.org/1999/xlink" x="0px" y="0px"
	 viewBox="0 0 283.8 61" style="enable-background:new 0 0 283.8 61;" xml:space="preserve">
<style type="text/css">
	.st0{fill-rule:evenodd;clip-rule:evenodd;}
	.st1{fill:#FDDA30;}
	.st2{fill:#FAA82A;}
	.st3{fill:#FFFFFF;}
	.st4{fill:none;stroke:#FFFFFF;stroke-width:0.5;stroke-linecap:round;stroke-miterlimit:10;}
	.st5{fill-rule:evenodd;clip-rule:evenodd;fill:#FFFFFF;}
	.st6{fill:#3C3D3E;}
	.st7{fill:#41C2F1;}
	.st8{fill-rule:evenodd;clip-rule:evenodd;fill:#FAA82A;}
</style>
<g>
	<path class="st3" d="M39.7,9.5c-0.9-0.8-2.2-1.3-3.5-1.6c3.8-0.8,7.9-1.3,12.2-1.3c8.6,0,13.5,1.9,13.5,3.8c0,0.9-1.4,1.7-0.7,1.7
		s2.5-0.6,2.5-2.7c0-6.9-4.7-9.3-11-9.3C31.5,0,0,9.3,0,18.8C0,24.6,3.8,30,9,30c5.3,0,7.9-2.8,7.9-3.7c0-0.9-7.5,0.7-7.5-2.2
		C9.3,22,18.1,13.3,32.2,9c2.2,6-15.5,32-15.5,43.4c0,7.5,10.5,10.1,10.2,7.6C24.1,37.2,43.1,13,39.7,9.5z"/>
	<path class="st3" d="M80.6,30.9c1.2,0,5.3-3.9,5.5-6.2c0.1-1.6-3.7-5-5.8-5c-0.1,0-0.2,0-0.2,0c-6.6,0.2-9.6,9-10.8,12.1
		c0,0,0,0,0,0.1c-0.9,1.8-4.8,7.5-7.7,7.5c-2.3,0-2.5-1.4-2.5-3.2c0-3.7,2.6-9.7,4-11.1c1.3-1.3-0.6-2.9-2.6-2.9
		c-1.6,0-3.9,2.3-5.9,5.5c-0.3-3-1.7-5.4-5.6-5.4c-5.3,0-13.8,9.2-13.8,19.5c0,5.1,3.7,7.6,6.7,7.6c2.8,0,5.6-2.4,7.9-5.7
		c0.2,2.6,1.7,6.6,6.7,6.6c3.5,0,6.4-2,8.6-4.7c1.3,3.1,3.7,6.2,7.5,6.2c7,0,10-4,10-8.2c0-4.2-5.7-10.1-5.7-14.7
		c0-1.7,3-4.3,4.6-4.3C83.7,24.6,79.5,30.9,80.6,30.9z M46,39.3c-1.5,0-2.6-1.3-2.6-3.1c0-3.5,3.8-9.1,6.8-9.1
		c1.4,0,1.8,1.9,1.8,3.8C52.1,34.6,48.6,39.3,46,39.3z M71.4,43.1c-1.4,0-2.6-0.8-3.7-1.7c1.1-2.1,1.8-4,2.3-5.5
		c0.1-0.1,0.1-0.2,0.2-0.3c0.7-1.8,1.3-3.6,2-5.2C73.5,35.5,78.4,43.1,71.4,43.1z"/>
	<path class="st3" d="M278.3,30.9c1.2,0,5.3-3.9,5.5-6.2c0.1-1.6-3.7-5-5.8-5c-0.1,0-0.2,0-0.2,0c-7.2,0.2-10.2,10.8-11.1,12.9
		c-0.1,0.2-0.1,0.3-0.2,0.5c-1.8,3-4.8,6.2-7,6.2c-1.9,0-2.4-1.8-2.4-2.8c0-4.5,3.1-8.2,3.1-10.4c0-1.4-0.9-3.9-4.2-3.9
		c-1.6,0-3.7,0.2-5.5,0.2c0.5-1.5,1.6-4.3,1.6-6.1c0-2.6-2-3.4-3.7-3.4c-3.5,0-6.3,4.4-6.3,8.2c0,2.3,1.1,3.9,2.8,4.9
		c-1,3.2-3.4,9.5-6.1,12.4c-1.6,1-3.4,1.5-5.7,1.5c-1.8,0-4.6-1.1-4.6-3.8c0-0.4,0.1-0.9,0.2-1.3c0.5,0.5,1.3,0.9,2.2,0.9
		c2.7,0,10.2-3.5,10.2-8.2s-4.5-5.4-5.8-5.4c-5.9,0-11.9,5.9-13.8,12.7c-2.2,2.6-5.5,5.8-8.7,5.8c-3.4,0-5-2.8-5-5
		c5.3-6.5,11.9-12.6,15.2-12.6c0.5,0,0.6-0.2,0.6-0.6c0-1.3-2.4-4.4-4-4.4c-4.2,0-12.3,11.2-17.7,19.9c2.5-8.6,10.1-18.7,10.1-26.5
		c0-2.1-0.9-4.6-4-4.6c-2,0-4.3,0.9-4.3,1.3c0,0.1,0,0.1,0,0.1c0.7,0.9,1.1,2,1.1,3.5c0,5-3.6,13.1-6.9,20.2c-0.1,0-0.1,0.1-0.2,0.2
		c-0.9,1.8-4.8,7.5-7.7,7.5c-2.3,0-2.5-1.4-2.5-3.2c0-3.7,2.6-9.7,4-11.1c1.3-1.3-0.5-2.9-2.6-2.9c-1.6,0-3.9,2.3-5.9,5.5
		c-0.3-3-1.7-5.4-5.6-5.4c-3.9,0-9.6,5-12.3,11.8c-1.8,2.7-4.4,5.3-6.4,5.3c-1.9,0-2.4-1.8-2.4-2.8c0-4.5,3.1-8.2,3.1-10.4
		c0-1.4-0.9-3.9-4.2-3.9c-2.4,0-8,3.2-11.4,8.9c1.1-2.1,1.9-3.4,1.9-4.9c0-1.4-0.9-3.9-4.2-3.9c-3.7,0-7.3,3.3-10.7,9.1
		c0.6-2.2,1.8-3,1.8-5.4c0-3.1-5.8-4.7-5.8-2.4c0,3.7-1.4,7-3,10.2c-2.2,3.6-5.3,6.3-10.3,6.3c-1.8,0-4.6-1.1-4.6-3.8
		c0-0.4,0.1-0.9,0.2-1.3c0.5,0.5,1.3,0.9,2.2,0.9c2.7,0,10.2-3.5,10.2-8.2s-4.5-5.4-5.8-5.4c-6,0-12.1,6.1-13.8,13.1
		c-1.6,2.1-3.9,4.3-5.7,4.3c-2.2,0-2.5-1.4-2.5-3.2c0-4.5,2.8-10.8,5.8-16.5c3,0,5.4,0,5.8,0c1.6,0,3.1-3.3,2.4-3.3
		c-2,0-4.1-0.1-6.3-0.2c1.7-3.1,3.2-5.2,3.9-5.9c1.8-1.8-5.2-0.2-7.3,2c-0.8,0.8-0.9,0.9-2.6,3.5c-3.9-0.3-7.1-0.6-7.5-0.6
		c-1.4,0-5.5,4.6-3.1,4.6c1,0,4.5,0,8.2,0c-4.3,7.3-8.6,16.3-8.6,23.4c0,2.4,1.3,7.2,6.8,7.2c4.9,0,8.5-3.9,10.8-7.9
		c1.5,4.1,5.6,6.8,9.6,6.8c3.5,0,6.3-1.6,8.5-3.8c0.8,2.3,3.7,4,4.7,4c0.5,0,1.1-0.3,1.1-0.5c0-8.4,11-20.3,12.2-20.3
		c0.3,0,0.3,0.3,0.3,0.6c0,4.3-6.2,10.4-6.2,14.4c0,3.5,2.2,5.7,6,5.7c1.6,0,0.9-0.6,1.3-2.4c2-7.9,10.1-18.2,12.3-18.2
		c0.3,0,0.3,0.3,0.3,0.6c0,1.7-5.1,7.2-5.1,13.3c0,4.5,2.4,7.9,6.8,7.9c4.3,0,7.7-3.2,10.1-6.7c0.8,3.9,3.9,5.8,6.5,5.8
		c2.8,0,5.6-2.4,7.9-5.7c0.2,2.6,1.7,6.6,6.7,6.6c3.2,0,5.8-1.7,7.9-3.9c0.8,2.6,3.7,3.9,5.4,3.9c1.5,0,1.5-0.9,1.5-1.8
		c0.5-2,2-4.7,4-7.7c1.3,4.5,4.3,10.4,8.2,10.4c2.9,0,6.6-4.7,9.3-9.2c1.4,4.3,5.6,7.1,9.7,7.1c8.6,0,13.4-9.8,14.5-14
		c1-2.5,2.3-5.8,3.3-8.1c0.1,0,0.2,0,0.4,0c0.5,0,3,0,4.2,0c0,0.2,0,0.2,0,0.4c0,1.7-5.7,9-5.7,15c0,4.5,2.4,7.9,6.8,7.9
		c3.3,0,6.1-1.9,8.3-4.4c1.3,3,3.7,6,7.4,6c7,0,10-4,10-8.2c0-4.2-5.7-10.1-5.7-14.7c0-1.7,3-4.3,4.6-4.3
		C281.4,24.6,277.2,30.9,278.3,30.9z M235,26c0.8,0,1.1,0.5,1.1,1.5c0,2-4.2,6.1-6.9,5.1C230.4,29.1,233.2,26,235,26z M115.5,26
		c0.8,0,1.1,0.5,1.1,1.5c0,2-4.2,6.1-6.9,5.1C110.9,29.1,113.8,26,115.5,26z M174.6,39.3c-1.5,0-2.6-1.3-2.6-3.1
		c0-3.5,3.8-9.1,6.8-9.1c1.4,0,1.8,1.9,1.8,3.8C180.7,34.6,177.2,39.3,174.6,39.3z M269.2,43.1c-1.3,0-2.4-0.7-3.4-1.5
		c1.9-3.5,2.9-7,2.9-7.8c0,0,0,0,0-0.1c0.4-1.2,0.8-2.3,1.3-3.3C271.2,35.5,276.1,43.1,269.2,43.1z"/>
</g>
</svg>
